# Blender v2.78 (sub 0) OBJ File: ''
# www.blender.org
o Cube

v 1.620671 -0.247351 -1.026536

v 1.791146 -0.541944 0.214309

v -0.208854 -0.541944 0.214309

v -0.208853 -0.541944 -1.785691

v 0.455637 4.109662 -1.444176

v 1.791146 1.458056 0.214309

v -0.208854 1.458056 0.214309

v -0.779980 2.590867 -3.622071

vn 0.0951 -0.9909 -0.0951
vn -0.6314 0.5187 0.5764
vn 0.9313 0.1488 -0.3325
vn -0.0000 -0.0000 1.0000
vn -0.9934 -0.0814 0.0814
vn 0.7060 -0.0490 -0.7065
s off
f 1//1 2//1 3//1 4//1
f 5//2 8//2 7//2 6//2
f 1//3 5//3 6//3 2//3
f 2//4 6//4 7//4 3//4
f 3//5 7//5 8//5 4//5
f 5//6 1//6 4//6 8//6
